<?xml version="1.0" standalone="no"?>
<!DOCTYPE svg PUBLIC "-//W3C//DTD SVG 20010904//EN"
 "http://www.w3.org/TR/2001/REC-SVG-20010904/DTD/svg10.dtd">
<svg version="1.0" xmlns="http://www.w3.org/2000/svg"
 width="900.000000pt" height="600.000000pt" viewBox="0 0 900.000000 600.000000"
 preserveAspectRatio="xMidYMid meet">

<g transform="translate(0.000000,600.000000) scale(0.100000,-0.100000)"
fill="#000000" stroke="none">
<path d="M2503 5928 c19 -35 80 -151 136 -259 l101 -196 0 -1025 0 -1026 222
-201 221 -201 254 0 253 0 0 -432 1 -433 205 -217 205 -218 893 0 893 0 201
214 202 215 0 345 0 346 -415 0 -415 0 0 -150 0 -150 -475 0 -475 0 0 240 0
240 199 0 198 0 217 201 216 201 0 294 0 294 60 0 60 0 0 -130 0 -130 415 0
415 0 0 324 0 324 -202 217 -203 217 -272 -1 -273 -2 0 320 0 320 125 258 124
258 -671 3 c-369 1 -673 0 -675 -2 -2 -2 62 -118 142 -259 l145 -255 -2 -318
-3 -319 -200 -2 c-110 -1 -208 -2 -217 -3 -10 0 -107 -98 -217 -217 l-200
-218 -1 -282 0 -283 -60 0 -60 0 0 825 0 825 125 250 c69 137 125 252 125 255
0 3 -304 5 -676 5 l-676 0 35 -62z m1177 -33 c0 -3 -45 -95 -100 -205 l-100
-200 0 -870 0 -870 150 0 150 0 0 308 0 307 177 193 176 192 238 0 239 0 0
378 0 377 -106 185 c-59 102 -109 191 -111 198 -4 9 105 12 526 12 292 0 531
-2 531 -5 0 -3 -45 -95 -100 -205 l-100 -200 0 -370 0 -370 298 0 298 0 177
-191 177 -192 0 -269 0 -268 -327 2 -328 3 -3 133 -3 133 -142 -3 -142 -3 -5
-321 -5 -321 -183 -172 -184 -171 -231 -2 -232 -3 0 -325 0 -325 563 -3 562
-2 0 150 0 150 330 0 330 0 0 -285 0 -284 -172 -185 -173 -185 -861 0 -861 -1
-174 186 -174 186 -5 461 -5 462 -285 5 -285 5 -187 170 -188 170 0 1018 0
1018 -105 198 c-58 108 -105 200 -105 204 0 4 239 7 530 7 292 0 530 -2 530
-5z"/>
<path d="M4149 4641 c-8 -10 -76 -86 -151 -167 l-138 -149 0 -1050 1 -1050
151 -162 150 -163 829 0 828 0 150 161 151 160 0 220 0 219 -245 0 -245 0 0
-150 0 -150 -650 0 -650 0 0 910 0 910 140 0 140 0 0 240 0 240 -224 0 c-208
0 -225 -1 -237 -19z"/>
<path d="M5260 4653 c0 -5 -1 -111 -2 -238 l-3 -230 188 -3 187 -2 0 -130 0
-130 245 0 245 0 0 204 0 205 -152 165 -153 166 -277 0 c-153 0 -278 -3 -278
-7z"/>
<path d="M4414 4091 c-2 -2 -4 -80 -4 -173 l0 -168 105 0 105 0 -2 172 -3 172
-98 1 c-54 0 -101 -2 -103 -4z m136 -166 l0 -85 -35 0 -35 0 0 85 0 85 35 0
35 0 0 -85z"/>
<path d="M1666 1007 c-88 -270 -161 -497 -163 -502 -4 -12 228 -86 238 -76 4
3 31 88 60 189 54 184 59 193 97 173 17 -9 17 -20 -1 -206 -10 -109 -16 -199
-14 -202 7 -6 220 -63 239 -63 16 0 18 20 20 232 l3 233 57 30 57 30 46 185
46 185 -43 79 c-23 43 -52 82 -63 86 -32 13 -399 120 -410 120 -6 0 -82 -222
-169 -493z m389 385 c88 -25 166 -50 173 -56 8 -5 27 -37 44 -69 l30 -60 -42
-167 -42 -167 -58 -28 c-57 -27 -58 -28 -64 -79 -3 -28 -6 -129 -6 -224 0
-160 -1 -173 -17 -168 -10 2 -46 12 -81 22 l-62 17 6 61 c24 256 29 338 21
343 -12 7 -130 43 -133 40 -1 -1 -27 -85 -58 -186 -31 -102 -58 -186 -60 -189
-2 -2 -36 7 -75 19 -56 18 -70 27 -66 39 4 8 70 213 147 455 77 242 143 444
145 448 3 5 12 5 22 2 9 -4 88 -27 176 -53z"/>
<path d="M1947 1263 c-9 -15 -77 -241 -77 -256 0 -10 31 -23 98 -42 53 -15
102 -29 108 -32 13 -5 89 266 77 277 -7 7 -182 60 -197 60 -3 0 -7 -3 -9 -7z
m157 -89 c-2 -15 -47 -179 -51 -183 -1 -2 -32 4 -68 14 -44 11 -65 22 -61 30
2 7 14 46 26 86 11 41 23 79 25 86 5 14 131 -19 129 -33z"/>
<path d="M7095 1484 c-22 -8 -107 -35 -190 -59 -131 -38 -150 -46 -148 -63 3
-24 264 -995 269 -1001 2 -2 32 3 66 13 61 16 401 118 405 121 4 2 -69 219
-77 228 -4 4 -44 -4 -89 -18 -45 -15 -87 -25 -93 -23 -11 4 -48 110 -48 139 0
11 22 23 76 39 45 13 74 27 71 34 -2 6 -19 55 -36 109 -18 53 -36 97 -40 97
-4 0 -34 -9 -66 -20 -32 -11 -63 -20 -70 -20 -14 0 -58 142 -47 151 4 4 42 17
85 29 42 13 77 26 77 30 0 4 -16 57 -35 118 -39 123 -39 122 -110 96z m63
-102 c12 -38 22 -74 22 -80 0 -6 -38 -23 -84 -37 l-84 -26 35 -117 c19 -64 36
-118 37 -119 1 -1 36 8 77 21 l76 24 18 -57 c10 -31 20 -61 22 -68 3 -8 -23
-20 -71 -35 -42 -13 -76 -28 -76 -34 0 -17 61 -218 69 -226 4 -5 48 5 99 21
l92 29 24 -77 c13 -42 23 -77 22 -78 -4 -5 -370 -112 -373 -110 -8 9 -253 921
-250 931 3 7 57 26 120 44 63 18 132 39 153 46 22 8 41 15 45 15 3 1 15 -30
27 -67z"/>
<path d="M2521 1273 c-16 -59 -231 -983 -231 -991 0 -7 242 -63 248 -58 6 7
212 1021 209 1031 -3 5 -47 19 -98 29 -52 10 -99 21 -106 23 -7 3 -16 -11 -22
-34z m122 -33 c31 -6 57 -14 57 -18 -1 -23 -198 -933 -203 -938 -10 -10 -138
17 -143 31 -3 6 40 207 95 446 54 239 102 449 106 467 4 20 12 32 19 29 6 -3
37 -10 69 -17z"/>
<path d="M6439 1306 c-3 -3 -94 -23 -203 -45 -109 -22 -200 -41 -202 -43 -6
-6 178 -1022 187 -1032 7 -8 250 35 439 78 l55 12 46 108 46 108 -82 327 c-45
180 -85 332 -88 338 -11 18 -174 153 -184 153 -5 0 -12 -2 -14 -4z m87 -108
l73 -62 77 -315 c43 -174 77 -320 77 -326 0 -8 -71 -176 -76 -182 -8 -7 -410
-83 -415 -78 -6 5 -183 949 -179 951 4 2 343 71 356 73 7 0 46 -27 87 -61z"/>
<path d="M6360 1056 c-69 -16 -95 -26 -93 -36 4 -35 115 -575 119 -579 5 -5
190 30 204 39 10 6 -119 601 -130 599 -3 0 -48 -11 -100 -23z m126 -276 c29
-129 53 -243 53 -252 1 -12 -13 -20 -55 -28 -30 -7 -57 -10 -60 -8 -9 9 -105
491 -100 503 5 14 43 23 85 21 24 -1 26 -10 77 -236z"/>
<path d="M2866 1113 c-4 -70 -8 -159 -11 -198 -2 -38 -7 -180 -10 -315 -3
-135 -8 -287 -10 -338 -3 -67 -1 -94 8 -97 29 -11 383 -62 388 -56 12 11 305
963 313 1016 1 7 -244 48 -250 41 -1 0 -43 -138 -94 -306 -51 -168 -96 -309
-100 -314 -5 -4 -6 32 -4 80 2 49 6 197 9 329 l5 241 -107 18 c-60 10 -113 21
-119 23 -9 3 -14 -34 -18 -124z m172 50 l23 -5 -6 -367 c-4 -201 -8 -371 -10
-378 -4 -12 16 -23 43 -23 18 0 14 -12 159 470 42 140 78 256 78 258 2 3 159
-19 163 -22 8 -8 -283 -932 -296 -939 -7 -4 -302 40 -308 46 -3 3 13 634 22
826 l7 153 51 -6 c28 -4 61 -10 74 -13z"/>
<path d="M5785 1180 c-22 -4 -61 -11 -86 -14 l-46 -7 13 -92 c7 -51 39 -285
70 -522 31 -237 59 -432 60 -434 4 -5 238 31 246 38 3 3 -7 87 -23 186 -16 99
-52 319 -79 490 -28 171 -53 322 -56 338 -6 30 -21 32 -99 17z m132 -505 c40
-253 73 -467 73 -477 0 -12 -16 -19 -71 -28 -39 -7 -73 -9 -76 -6 -4 3 -19 95
-34 204 -34 236 -99 709 -102 737 -2 16 6 21 38 26 22 4 53 6 70 5 l29 -1 73
-460z"/>
<path d="M5217 1114 c-76 -7 -139 -13 -141 -15 -1 -2 -29 -42 -61 -88 l-58
-83 6 -150 c7 -144 8 -153 38 -205 17 -30 41 -59 53 -64 11 -5 77 -22 145 -39
69 -16 128 -33 132 -37 3 -5 9 -38 12 -74 l6 -66 -55 -7 c-31 -3 -60 -4 -65
-1 -5 4 -9 21 -9 39 l0 32 -62 -3 c-35 -2 -87 -6 -115 -9 l-53 -5 0 -67 0 -67
83 -82 82 -81 150 14 c83 7 155 13 162 14 7 0 41 42 77 93 l65 93 -19 154 -19
154 -50 50 -51 51 -132 23 c-73 13 -133 24 -134 25 -1 1 -5 38 -9 83 l-7 81
53 6 c28 4 56 4 60 1 5 -3 9 -21 9 -40 0 -40 3 -41 142 -23 l88 12 -6 66 c-7
74 -12 81 -114 170 l-65 56 -138 -11z m195 -97 c57 -52 69 -69 74 -103 6 -40
5 -41 -26 -48 -18 -3 -50 -6 -71 -6 -37 0 -38 1 -41 38 -3 33 -6 37 -28 35
-14 -1 -60 -5 -102 -8 l-78 -7 5 -71 c3 -40 8 -95 11 -123 l5 -50 142 -25
c135 -23 144 -26 183 -61 l40 -37 16 -142 17 -143 -54 -77 -55 -76 -57 -6
c-32 -4 -94 -9 -139 -13 l-80 -6 -67 66 c-60 59 -67 69 -67 105 l0 39 59 7
c33 4 65 4 70 0 6 -3 11 -21 11 -40 0 -32 1 -34 33 -30 17 3 67 7 110 11 l78
6 -7 76 c-3 43 -9 92 -13 111 l-7 34 -149 36 -149 36 -30 45 c-28 41 -30 52
-38 182 l-8 138 51 74 52 75 61 5 c34 3 75 8 91 9 83 10 88 8 157 -56z"/>
<path d="M3656 1109 c-2 -8 -23 -212 -46 -454 -23 -242 -45 -472 -49 -512 l-7
-72 35 -5 c20 -3 99 -10 176 -16 77 -5 170 -12 206 -15 l66 -5 7 62 c3 33 6
89 6 123 l0 62 -52 7 c-29 3 -72 6 -95 6 l-43 0 0 73 c0 39 4 78 9 85 6 11 25
12 83 7 l75 -7 8 112 c4 61 5 113 3 116 -3 2 -39 7 -82 11 -72 6 -77 7 -72 27
3 12 6 47 6 80 l0 58 93 -3 92 -4 5 120 c3 66 5 122 3 124 -1 2 -57 7 -125 12
-68 4 -162 11 -210 15 -70 5 -88 4 -92 -7z m184 -44 c58 -3 127 -8 154 -11
l48 -6 -6 -72 c-3 -39 -6 -75 -6 -80 0 -5 -38 -6 -89 -2 l-89 7 -7 -98 c-3
-54 -8 -108 -11 -121 -5 -27 -1 -28 89 -37 l67 -7 0 -70 0 -70 -82 3 -83 4 -6
-60 c-4 -33 -7 -90 -8 -127 l-1 -68 34 0 c18 0 61 -3 95 -6 l61 -7 0 -73 c0
-42 -5 -76 -11 -80 -20 -12 -370 18 -376 32 -3 7 11 186 31 396 19 211 38 419
42 463 7 99 10 108 31 101 10 -2 65 -7 123 -11z"/>
<path d="M4226 1026 c-3 -34 -8 -153 -11 -266 -12 -445 -16 -568 -21 -646 l-5
-81 38 -7 c21 -3 77 -6 126 -6 l87 0 2 83 c1 45 3 129 4 187 1 58 2 111 3 118
1 6 14 12 30 12 l29 0 38 -197 39 -198 40 -3 c22 -2 81 -1 131 3 l91 7 -59
211 c-32 117 -58 219 -58 227 0 9 20 36 45 60 43 42 45 47 41 90 -2 25 -5 107
-5 184 l-1 138 -67 69 -68 68 -222 4 -222 4 -5 -61z m481 -39 l51 -53 7 -174
7 -174 -50 -43 -50 -43 50 -193 c28 -105 53 -202 55 -215 5 -21 3 -22 -74 -22
l-79 0 -37 192 c-21 106 -39 193 -40 194 -1 1 -35 4 -74 8 l-73 6 -2 -197 -3
-198 -78 -3 -79 -3 6 63 c3 35 8 194 11 353 3 160 8 350 12 423 l6 132 192 0
192 0 50 -53z"/>
<path d="M4407 894 c-4 -4 -7 -70 -7 -146 l0 -138 115 0 116 0 -3 143 -3 142
-106 3 c-58 1 -108 -1 -112 -4z m173 -144 l0 -100 -65 0 -65 0 0 100 0 100 65
0 65 0 0 -100z"/>
</g>
</svg>
